<?xml version="1.0" encoding="iso-8859-1"?>
<!-- Generator: Adobe Illustrator 18.0.0, SVG Export Plug-In . SVG Version: 6.00 Build 0)  -->
<!DOCTYPE svg PUBLIC "-//W3C//DTD SVG 1.1//EN" "http://www.w3.org/Graphics/SVG/1.1/DTD/svg11.dtd">
<svg version="1.1" id="Capa_1" xmlns="http://www.w3.org/2000/svg" xmlns:xlink="http://www.w3.org/1999/xlink" x="0px" y="0px"
	 viewBox="0 0 468 468" style="enable-background:new 0 0 468 468;" xml:space="preserve">
<g>
	<path d="M458.403,357.675c4.225-4.589,6.811-10.709,6.811-17.424c0-10.83-6.724-20.113-16.214-23.911v-24.162
		c3.208-1.278,6.154-3.203,8.67-5.719c4.862-4.862,7.54-11.33,7.54-18.209c0-10.831-6.722-20.115-16.21-23.913v-24.229
		c3.208-1.278,6.154-3.203,8.67-5.719c4.862-4.863,7.54-11.33,7.54-18.209c0-5.846-1.961-11.241-5.255-15.568
		c4.867-3.577,8.045-9.323,8.045-15.813C468,95.984,412.016,40,343.201,40H124.799C55.984,40,0,95.984,0,164.799
		c0,6.485,3.174,12.229,8.036,15.806c-3.401,4.463-5.246,9.879-5.246,15.575c0,11.197,7.183,20.743,17.18,24.28v23.495
		c-3.586,1.262-6.875,3.321-9.648,6.093C5.465,254.92,2.79,261.384,2.79,268.25c0,11.197,7.183,20.743,17.18,24.28v23.442
		c-10,3.538-17.185,13.083-17.185,24.279c0,6.715,2.586,12.835,6.811,17.424C3.75,362.384,0,369.594,0,377.668
		C0,405.421,22.579,428,50.332,428h367.336C445.421,428,468,405.421,468,377.668C468,369.594,464.25,362.383,458.403,357.675z
		 M230.84,294c2.732,9.951,11.853,17.286,22.66,17.286s19.928-7.335,22.66-17.286H435v20.502H33.97V294H230.84z M33.97,221.93H230
		v20.57H33.97V221.93z M435,242.5h-83.091v-20.57H435V242.5z M304.909,242.5H277v-20.57h27.909V242.5z M304.909,207.93H277v-23.498
		h27.909V207.93z M318.909,184.432h19V251.1c0,5.238-4.262,9.5-9.5,9.5s-9.5-4.262-9.5-9.5V184.432z M263,184.432v103.354
		c0,5.238-4.262,9.5-9.5,9.5s-9.5-4.262-9.5-9.5V184.432H263z M447.77,276.561c-2.218,2.218-5.165,3.439-8.3,3.439H277v-23.5h28.542
		c2.447,10.363,11.767,18.1,22.867,18.1s20.42-7.737,22.867-18.1h88.194c6.474,0,11.74,5.271,11.74,11.75
		C451.21,271.391,449.988,274.342,447.77,276.561z M447.77,204.491c-2.218,2.218-5.165,3.439-8.3,3.439h-87.561v-23.498h87.599
		c6.456,0.021,11.702,5.282,11.702,11.748C451.21,199.32,449.988,202.271,447.77,204.491z M124.799,54h218.402
		C404.296,54,454,103.704,454,164.799c0,3.106-2.526,5.633-5.633,5.633H19.633c-3.106,0-5.633-2.527-5.633-5.633
		C14,103.704,63.704,54,124.799,54z M20.229,187.87c2.209-2.209,5.142-3.428,8.261-3.438H230v23.498H28.529
		c-6.473,0-11.739-5.271-11.739-11.75C16.79,193.045,18.014,190.091,20.229,187.87z M20.229,259.94
		c2.219-2.219,5.167-3.44,8.301-3.44H230V280H28.529c-6.473,0-11.739-5.271-11.739-11.75
		C16.79,265.116,18.014,262.162,20.229,259.94z M27.288,328.57h413.422c5.895,0.624,10.503,5.624,10.503,11.681
		c0,6.479-5.271,11.749-11.749,11.749H28.534c-6.479,0-11.749-5.271-11.749-11.749C16.785,334.193,21.394,329.194,27.288,328.57z
		 M417.668,414H50.332C30.299,414,14,397.702,14,377.668C14,371.234,19.234,366,25.668,366h416.664
		c6.434,0,11.668,5.234,11.668,11.668C454,397.702,437.701,414,417.668,414z"/>
	<path d="M75.368,124.594c1.791,0,3.583-0.684,4.95-2.05l15-15c2.733-2.733,2.733-7.166,0-9.899c-2.734-2.733-7.166-2.733-9.9,0
		l-15,15c-2.733,2.733-2.733,7.166,0,9.899C71.785,123.91,73.577,124.594,75.368,124.594z"/>
	<path d="M135.806,124.594c1.791,0,3.583-0.684,4.95-2.05l15-15c2.733-2.733,2.733-7.166,0-9.899c-2.734-2.733-7.166-2.733-9.9,0
		l-15,15c-2.733,2.733-2.733,7.166,0,9.899C132.223,123.91,134.015,124.594,135.806,124.594z"/>
	<path d="M256.681,124.594c1.791,0,3.583-0.684,4.95-2.05l15-15c2.733-2.733,2.733-7.166,0-9.899c-2.734-2.733-7.166-2.733-9.9,0
		l-15,15c-2.733,2.733-2.733,7.166,0,9.899C253.098,123.91,254.89,124.594,256.681,124.594z"/>
	<path d="M196.243,124.594c1.791,0,3.583-0.684,4.95-2.05l15-15c2.733-2.733,2.733-7.166,0-9.899c-2.734-2.733-7.166-2.733-9.9,0
		l-15,15c-2.733,2.733-2.733,7.166,0,9.899C192.66,123.91,194.452,124.594,196.243,124.594z"/>
	<path d="M317.118,124.594c1.791,0,3.583-0.684,4.95-2.05l15-15c2.733-2.733,2.733-7.166,0-9.899c-2.734-2.733-7.166-2.733-9.9,0
		l-15,15c-2.733,2.733-2.733,7.166,0,9.899C313.535,123.91,315.327,124.594,317.118,124.594z"/>
	<path d="M377.631,124.594c1.791,0,3.583-0.684,4.95-2.05l15-15c2.733-2.733,2.733-7.166,0-9.899c-2.734-2.733-7.166-2.733-9.9,0
		l-15,15c-2.733,2.733-2.733,7.166,0,9.899C374.048,123.91,375.84,124.594,377.631,124.594z"/>
	<path d="M357.462,90.747c1.367,1.367,3.159,2.05,4.95,2.05s3.583-0.684,4.95-2.05c2.733-2.733,2.733-7.166,0-9.899l-15-15
		c-2.734-2.733-7.166-2.733-9.9,0c-2.733,2.733-2.733,7.166,0,9.899L357.462,90.747z"/>
	<path d="M236.587,90.747c1.367,1.367,3.159,2.05,4.95,2.05s3.583-0.684,4.95-2.05c2.733-2.733,2.733-7.166,0-9.899l-15-15
		c-2.734-2.733-7.166-2.733-9.9,0c-2.733,2.733-2.733,7.166,0,9.899L236.587,90.747z"/>
	<path d="M297.024,90.747c1.367,1.367,3.159,2.05,4.95,2.05s3.583-0.684,4.95-2.05c2.733-2.733,2.733-7.166,0-9.899l-15-15
		c-2.734-2.733-7.166-2.733-9.9,0c-2.733,2.733-2.733,7.166,0,9.899L297.024,90.747z"/>
	<path d="M176.149,90.747c1.367,1.367,3.159,2.05,4.95,2.05s3.583-0.684,4.95-2.05c2.733-2.733,2.733-7.166,0-9.899l-15-15
		c-2.734-2.733-7.166-2.733-9.9,0c-2.733,2.733-2.733,7.166,0,9.899L176.149,90.747z"/>
	<path d="M115.637,90.747c1.367,1.367,3.159,2.05,4.95,2.05s3.583-0.684,4.95-2.05c2.733-2.733,2.733-7.166,0-9.899l-15-15
		c-2.734-2.733-7.166-2.733-9.9,0c-2.733,2.733-2.733,7.166,0,9.899L115.637,90.747z"/>
</g>
<g>
</g>
<g>
</g>
<g>
</g>
<g>
</g>
<g>
</g>
<g>
</g>
<g>
</g>
<g>
</g>
<g>
</g>
<g>
</g>
<g>
</g>
<g>
</g>
<g>
</g>
<g>
</g>
<g>
</g>
</svg>
