<?xml version="1.0" encoding="iso-8859-1"?>
<!-- Generator: Adobe Illustrator 18.0.0, SVG Export Plug-In . SVG Version: 6.00 Build 0)  -->
<!DOCTYPE svg PUBLIC "-//W3C//DTD SVG 1.1//EN" "http://www.w3.org/Graphics/SVG/1.1/DTD/svg11.dtd">
<svg version="1.1" id="Capa_1" xmlns="http://www.w3.org/2000/svg" xmlns:xlink="http://www.w3.org/1999/xlink" x="0px" y="0px"
	 viewBox="0 0 409.645 409.645" style="enable-background:new 0 0 409.645 409.645;" xml:space="preserve">
<path d="M397.47,338.59c-7.864-7.864-18.319-12.195-29.44-12.195c-8.752,0-17.09,2.682-24.079,7.656l-47.627-47.628l6.127-6.127
	c16.362-16.363,16.362-42.988-0.001-59.352l-5.291-5.29c-4.983-4.984-11.61-7.729-18.658-7.729c-7.049,0-13.675,2.745-18.658,7.729
	l-17.145,17.143l-8.209-8.209l23.806-23.806c3.204-3.205,4.969-7.465,4.969-11.997c0-4.531-1.765-8.791-4.969-11.996
	c-3.205-3.204-7.465-4.969-11.996-4.969c-4.532,0-8.792,1.765-11.997,4.969l-23.806,23.806l-10.039-10.039l11.783-9.04
	c6.085-4.668,9.862-11.734,10.364-19.387c0.503-7.652-2.319-15.152-7.742-20.575l-0.11-0.11
	c-19.919-19.918-50.178-23.322-73.653-10.246l-10.172-10.172l23.807-23.807c6.613-6.614,6.613-17.377-0.001-23.993
	c-6.616-6.614-17.378-6.613-23.992,0.001l-23.806,23.806l-9.338-9.339c15.22-19.663,16.57-47.308,2.565-68.355
	C96.09,13.224,89.559,9.298,82.24,8.571c-7.355-0.735-14.577,1.852-19.814,7.088L43.992,34.092L11.951,2.05
	C9.217-0.683,4.785-0.683,2.051,2.049c-2.734,2.734-2.734,7.166-0.001,9.899l32.045,32.046
	c-19.677,19.822-19.697,51.891-0.008,71.58c4.838,4.839,11.272,7.501,18.124,7.501c0.02,0,0.04,0,0.06,0
	c6.861-0.016,13.316-2.7,18.177-7.56l17.585-17.585l9.002,9.002l-23.798,23.798c-3.204,3.205-4.969,7.465-4.969,11.997
	c0,4.531,1.765,8.791,4.969,11.996c3.205,3.204,7.465,4.969,11.996,4.969c4.532,0,8.792-1.765,11.997-4.97l23.798-23.798
	l8.555,8.554c-0.699,0.638-1.391,1.289-2.068,1.965c-9.422,9.422-13.747,22.392-11.867,35.583c1.88,13.19,9.656,24.435,21.335,30.85
	c6.273,3.445,13.173,5.143,20.046,5.143c8.989,0,17.933-2.905,25.359-8.603l6.865-5.267l11.344,11.343l-23.799,23.799
	c-3.204,3.205-4.969,7.465-4.969,11.997c0,4.531,1.765,8.791,4.969,11.996c3.205,3.204,7.465,4.969,11.996,4.969
	c4.532,0,8.792-1.765,11.997-4.969l23.798-23.798l8.277,8.277c-18.786,21.073-18.08,53.509,2.13,73.719l5.292,5.292
	c2.852,2.851,6.597,4.276,10.342,4.276c3.744,0,7.489-1.426,10.341-4.276l25.454-25.454l52.165,52.167
	c1.313,1.313,3.094,2.05,4.95,2.05s3.637-0.737,4.95-2.051c5.219-5.22,12.158-8.094,19.54-8.094s14.321,2.874,19.54,8.095
	c5.22,5.219,8.094,12.158,8.094,19.54s-2.874,14.321-8.094,19.54c-5.219,5.22-12.158,8.095-19.54,8.095s-14.321-2.875-19.54-8.095
	c-2.734-2.732-7.166-2.732-9.9,0c-2.733,2.734-2.733,7.166,0,9.9c8.117,8.116,18.778,12.175,29.44,12.175s21.323-4.059,29.44-12.175
	C413.703,381.237,413.703,354.823,397.47,338.59z M60.547,105.616c-2.224,2.225-5.174,3.453-8.309,3.46c-0.009,0-0.018,0-0.027,0
	c-3.111,0-6.031-1.206-8.224-3.4C29.711,91.4,29.774,68.11,44.126,53.758l28.199-28.199c2.006-2.007,4.684-3.109,7.475-3.109
	c0.35,0,0.701,0.018,1.054,0.052c3.126,0.312,5.915,1.986,7.65,4.595c11.707,17.592,9.304,41.26-5.714,56.276L60.547,105.616z
	 M87.329,144.825c-0.755,0.756-1.638,0.869-2.097,0.869c-0.458,0-1.341-0.113-2.096-0.869c-0.756-0.755-0.869-1.638-0.869-2.096
	c0-0.459,0.113-1.342,0.869-2.098l57.503-57.504c0.578-0.578,1.337-0.867,2.097-0.867s1.519,0.29,2.097,0.868
	c1.156,1.155,1.156,3.036,0,4.191c0,0,0,0,0,0.001L87.329,144.825z M173.866,193.311c-8.7,6.673-20.532,7.574-30.144,2.296
	c-7.781-4.273-12.962-11.766-14.215-20.554c-1.253-8.789,1.629-17.431,7.906-23.708c9.298-9.298,21.507-13.944,33.72-13.944
	c12.21,0,24.423,4.649,33.718,13.944l0.11,0.11c2.61,2.609,3.915,6.075,3.673,9.759c-0.241,3.683-1.987,6.948-4.916,9.195
	L173.866,193.311z M190.89,248.386c-0.755,0.756-1.638,0.869-2.097,0.869c-0.458,0-1.341-0.113-2.096-0.869
	c-0.756-0.755-0.869-1.638-0.869-2.096c0-0.459,0.113-1.342,0.869-2.097l57.504-57.504c0.755-0.756,1.638-0.869,2.097-0.869
	c0.458,0,1.341,0.113,2.096,0.869c0.756,0.755,0.869,1.638,0.869,2.096c0,0.459-0.113,1.342-0.869,2.097L190.89,248.386z
	 M251.07,311.876c-0.243,0.245-0.641,0.244-0.882,0l-5.292-5.292c-15.491-15.49-15.491-40.695-0.001-56.186l24.847-24.845
	c2.339-2.34,5.45-3.629,8.759-3.629s6.419,1.289,8.759,3.629l5.291,5.291c10.905,10.904,10.905,28.646,0,39.551l-11.038,11.038
	c-0.013,0.013-0.028,0.024-0.041,0.037c-0.013,0.013-0.024,0.028-0.037,0.041L251.07,311.876z"/>
<g>
</g>
<g>
</g>
<g>
</g>
<g>
</g>
<g>
</g>
<g>
</g>
<g>
</g>
<g>
</g>
<g>
</g>
<g>
</g>
<g>
</g>
<g>
</g>
<g>
</g>
<g>
</g>
<g>
</g>
</svg>
