<?xml version="1.0" encoding="iso-8859-1"?>
<!-- Generator: Adobe Illustrator 18.0.0, SVG Export Plug-In . SVG Version: 6.00 Build 0)  -->
<!DOCTYPE svg PUBLIC "-//W3C//DTD SVG 1.1//EN" "http://www.w3.org/Graphics/SVG/1.1/DTD/svg11.dtd">
<svg version="1.1" id="Capa_1" xmlns="http://www.w3.org/2000/svg" xmlns:xlink="http://www.w3.org/1999/xlink" x="0px" y="0px"
	 viewBox="0 0 463.848 463.848" style="enable-background:new 0 0 463.848 463.848;" xml:space="preserve">
<path d="M436.131,318.555c6.779-7.274,10.502-16.698,10.502-26.708c0-13.347-6.697-25.153-16.901-32.251
	c1.911-1.331,3.722-2.832,5.401-4.514c7.416-7.416,11.5-17.272,11.5-27.754c0-10.308-4-19.695-10.521-26.706
	c15.987-4.536,27.735-19.255,27.735-36.675c0-65.867-53.587-119.454-119.454-119.454H119.454C53.587,44.492,0,98.079,0,163.947
	c0,17.415,11.741,32.13,27.72,36.671c-6.781,7.285-10.506,16.711-10.506,26.71c0,13.344,6.698,25.147,16.904,32.243
	c-1.911,1.33-3.723,2.83-5.404,4.511c-7.416,7.415-11.5,17.276-11.5,27.765c0,10.306,3.998,19.692,10.518,26.703
	C11.747,323.087,0,337.805,0,355.224c0,35.362,28.769,64.131,64.131,64.131h335.586c35.362,0,64.131-28.769,64.131-64.131
	C463.848,337.81,452.109,323.097,436.131,318.555z M425.229,245.187c-4.759,4.769-11.099,7.395-17.85,7.395H151.354v-1.874
	c0-6.954,5.657-12.611,12.611-12.611c14.673,0,26.611-11.938,26.611-26.611v-9.412H407.38c13.925,0,25.254,11.329,25.254,25.254
	C432.634,234.07,430.006,240.41,425.229,245.187z M108.455,202.073h68.122v9.412c0,6.954-5.657,12.611-12.611,12.611
	c-14.673,0-26.611,11.938-26.611,26.611v18.386c0,7.968-6.482,14.45-14.45,14.45s-14.45-6.482-14.45-14.45V202.073z M14,163.946
	c0-58.147,47.306-105.454,105.454-105.454h224.941c58.147,0,105.454,47.306,105.454,105.454v0c0,13.303-10.823,24.126-24.126,24.126
	H38.126C24.823,188.073,14,177.249,14,163.946z M31.214,227.327c0-6.742,2.628-13.083,7.399-17.854s11.112-7.399,17.854-7.399
	h37.986v50.508H56.468C42.543,252.581,31.214,241.253,31.214,227.327z M38.614,273.981c4.771-4.772,11.112-7.4,17.854-7.4h37.986
	v2.512c0,15.687,12.763,28.45,28.45,28.45c15.687,0,28.45-12.763,28.45-28.45v-2.512H407.38c13.925,0,25.254,11.334,25.254,25.266
	c0,6.751-2.626,13.09-7.404,17.859c-4.736,4.745-11.036,7.367-17.749,7.393H56.372c-13.88-0.052-25.158-11.358-25.158-25.251
	C31.214,285.097,33.842,278.753,38.614,273.981z M399.717,405.356H64.131C36.489,405.356,14,382.867,14,355.224
	c0-13.303,10.823-24.126,24.126-24.126h387.596c13.303,0,24.126,10.823,24.126,24.126
	C449.848,382.867,427.359,405.356,399.717,405.356z"/>
<g>
</g>
<g>
</g>
<g>
</g>
<g>
</g>
<g>
</g>
<g>
</g>
<g>
</g>
<g>
</g>
<g>
</g>
<g>
</g>
<g>
</g>
<g>
</g>
<g>
</g>
<g>
</g>
<g>
</g>
</svg>
