<?xml version="1.0" encoding="iso-8859-1"?>
<!-- Generator: Adobe Illustrator 18.0.0, SVG Export Plug-In . SVG Version: 6.00 Build 0)  -->
<!DOCTYPE svg PUBLIC "-//W3C//DTD SVG 1.1//EN" "http://www.w3.org/Graphics/SVG/1.1/DTD/svg11.dtd">
<svg version="1.1" id="Capa_1" xmlns="http://www.w3.org/2000/svg" xmlns:xlink="http://www.w3.org/1999/xlink" x="0px" y="0px"
	 viewBox="0 0 454 454" style="enable-background:new 0 0 454 454;" xml:space="preserve">
<path d="M373.459,74.964l-10.227-44.456c-0.731-3.178-3.561-5.431-6.822-5.431H345.39l-5.024-19.799
	C339.578,2.174,336.784,0,333.581,0H120.42c-3.203,0-5.997,2.174-6.785,5.278l-5.024,19.799H97.589
	c-3.262,0-6.091,2.252-6.822,5.431L80.541,74.964c-0.478,2.078,0.018,4.261,1.346,5.929c1.328,1.668,3.344,2.64,5.477,2.64h19.755
	l4.981,62.373h-6.759c-1.953,0-3.816,0.815-5.142,2.25c-1.325,1.434-1.991,3.357-1.837,5.304l16.636,209.741
	c0.289,3.64,3.327,6.446,6.979,6.446h8.009l6.222,77.91c0.29,3.639,3.328,6.443,6.978,6.443h167.634c3.65,0,6.688-2.804,6.978-6.443
	l6.222-77.91h8.01c3.651,0,6.689-2.807,6.979-6.446L355.64,153.46c0.154-1.947-0.512-3.87-1.837-5.304
	c-1.325-1.435-3.188-2.25-5.142-2.25h-6.759l4.98-62.373h19.755c2.133,0,4.148-0.972,5.477-2.64
	C373.442,79.225,373.937,77.042,373.459,74.964z M125.866,14h202.27l2.811,11.078H123.055L125.866,14z M304.354,440H149.646
	l-5.618-70.353h165.944L304.354,440z M325.559,355.647H128.442l-15.525-195.741h228.168L325.559,355.647z M327.859,145.907H126.142
	l-4.981-62.373h211.677L327.859,145.907z M96.156,69.534l7.006-30.456h247.677l7.006,30.456H96.156z"/>
<g>
</g>
<g>
</g>
<g>
</g>
<g>
</g>
<g>
</g>
<g>
</g>
<g>
</g>
<g>
</g>
<g>
</g>
<g>
</g>
<g>
</g>
<g>
</g>
<g>
</g>
<g>
</g>
<g>
</g>
</svg>
