<?xml version="1.0" encoding="iso-8859-1"?>
<!-- Generator: Adobe Illustrator 18.0.0, SVG Export Plug-In . SVG Version: 6.00 Build 0)  -->
<!DOCTYPE svg PUBLIC "-//W3C//DTD SVG 1.1//EN" "http://www.w3.org/Graphics/SVG/1.1/DTD/svg11.dtd">
<svg version="1.1" id="Capa_1" xmlns="http://www.w3.org/2000/svg" xmlns:xlink="http://www.w3.org/1999/xlink" x="0px" y="0px"
	 viewBox="0 0 464.29 464.29" style="enable-background:new 0 0 464.29 464.29;" xml:space="preserve">
<g>
	<path d="M318.2,38.358c-2.042-1.28-4.601-1.419-6.77-0.368c-1.399,0.678-2.781,1.39-4.166,2.095
		c-5.059-5.784-12.597-9.257-19.964-9.07c-4.493-4.676-11.067-7.447-18.112-7.447c-3.479,0-6.769,0.685-9.72,2.004
		c-2.951-1.32-6.242-2.004-9.721-2.004c-6.406,0-12.417,2.294-16.835,6.221V26.69c0-14.717-11.974-26.69-26.69-26.69h-15.63
		c-14.711,0-26.68,11.973-26.68,26.69v17.018c-3.628-1.999-7.314-3.907-11.055-5.719c-2.166-1.05-4.724-0.912-6.769,0.369
		c-2.042,1.28-3.282,3.521-3.282,5.931v413c0,2.41,1.24,4.651,3.282,5.931c1.133,0.71,2.423,1.069,3.718,1.069h164.676
		c1.295,0,2.586-0.359,3.718-1.069c2.042-1.28,3.282-3.521,3.282-5.931v-413C321.483,41.879,320.243,39.639,318.2,38.358z
		 M214.493,59.09c15.75,0,28.656,12.406,29.46,27.959c-4.095,4.253-8.024,8.662-11.789,13.209
		c-10.671-12.91-22.661-24.624-35.759-34.971C201.521,61.299,207.83,59.09,214.493,59.09z M307.483,55.785v390.014
		c-25.478-14.003-48.236-33.093-66.517-55.819c2.854-3.912,5.602-7.914,8.223-12.011c24.278-37.947,37.11-81.925,37.11-127.179
		c0-45.253-12.832-89.231-37.11-127.179c-2.623-4.099-5.371-8.103-8.227-12.017C259.224,88.894,281.984,69.807,307.483,55.785z
		 M232.167,401.316c15.806,19.091,34.604,35.684,55.458,48.974H176.694C197.63,436.977,216.346,420.457,232.167,401.316z
		 M240.668,42.083c1.621-2.7,5.271-4.514,9.079-4.514c2.133,0,4.076,0.587,5.473,1.654c2.508,1.915,5.988,1.915,8.496,0
		c1.396-1.066,3.34-1.654,5.472-1.654c3.803,0,7.448,1.814,9.069,4.514c1.609,2.68,4.8,3.971,7.824,3.154
		c2.588-0.697,5.708,0.156,8.27,1.942c-13.694,8.099-26.574,17.589-38.396,28.26c-4.48-14.093-15.958-25.091-30.334-28.899
		c0.769-0.436,1.582-0.8,2.427-1.066c1.683-0.541,3.396-0.618,4.776-0.241C235.85,46.054,239.055,44.77,240.668,42.083z
		 M177.913,26.69c0-6.997,5.688-12.69,12.68-12.69h15.63c6.997,0,12.69,5.693,12.69,12.69v7.551
		c-4.744,2.629-8.603,6.646-10.909,11.344c-8.683,1.293-16.703,5.159-23.12,11.149c-2.295-1.597-4.618-3.155-6.97-4.671V26.69z
		 M156.807,55.776c32.682,17.93,60.392,43.809,80.589,75.379c22.834,35.691,34.903,77.06,34.903,119.634
		s-12.069,83.944-34.903,119.634c-20.197,31.57-47.907,57.449-80.589,75.379V55.776z"/>
	<path d="M185.483,117.29c-3.866,0-7,3.134-7,7v243c0,3.866,3.134,7,7,7s7-3.134,7-7v-243
		C192.483,120.424,189.349,117.29,185.483,117.29z"/>
	<path d="M212.483,349.29c3.866,0,7-3.134,7-7v-193c0-3.866-3.134-7-7-7s-7,3.134-7,7v193
		C205.483,346.156,208.617,349.29,212.483,349.29z"/>
	<path d="M239.483,305.29c3.866,0,7-3.134,7-7v-105c0-3.866-3.134-7-7-7s-7,3.134-7,7v105
		C232.483,302.156,235.617,305.29,239.483,305.29z"/>
</g>
<g>
</g>
<g>
</g>
<g>
</g>
<g>
</g>
<g>
</g>
<g>
</g>
<g>
</g>
<g>
</g>
<g>
</g>
<g>
</g>
<g>
</g>
<g>
</g>
<g>
</g>
<g>
</g>
<g>
</g>
</svg>
