<?xml version="1.0" encoding="iso-8859-1"?>
<!-- Generator: Adobe Illustrator 18.0.0, SVG Export Plug-In . SVG Version: 6.00 Build 0)  -->
<!DOCTYPE svg PUBLIC "-//W3C//DTD SVG 1.1//EN" "http://www.w3.org/Graphics/SVG/1.1/DTD/svg11.dtd">
<svg version="1.1" id="Capa_1" xmlns="http://www.w3.org/2000/svg" xmlns:xlink="http://www.w3.org/1999/xlink" x="0px" y="0px"
	 viewBox="0 0 454.4 454.4" style="enable-background:new 0 0 454.4 454.4;" xml:space="preserve">
<g>
	<path d="M304.133,162.482c-1.025-19.945-14.865-37.947-36.933-48.193V40c0-22.056-17.944-40-40-40s-40,17.944-40,40v74.29
		c-22.068,10.245-35.908,28.248-36.933,48.193c-0.04,0.301-0.067,214.918-0.067,214.918c0,42.458,34.542,77,77,77s77-34.542,77-77
		C304.2,377.4,304.173,162.783,304.133,162.482z M201.2,40c0-11.911,8.054-21.97,19-25.035V31.4c0,3.866,3.134,7,7,7s7-3.134,7-7
		V14.965c10.946,3.065,19,13.123,19,25.035v110.611c0,11.843-11.664,21.478-26,21.478s-26-9.635-26-21.478V40z M187.2,130.086
		v20.525c0,19.563,17.944,35.478,40,35.478s40-15.915,40-35.478v-20.525c14.402,8.514,23,21.227,23,34.779
		c0,24.883-28.262,45.126-63,45.126s-63-20.243-63-45.126C164.2,151.313,172.798,138.6,187.2,130.086z M290.2,377.4
		c0,34.738-28.262,63-63,63s-63-28.262-63-63V198.798c13.945,15.22,36.977,25.193,63,25.193s49.055-9.973,63-25.193V377.4z"/>
	<path d="M262.524,248.754c-20.176,20.176-47.023,31.287-75.597,31.287c-3.866,0-7,3.134-7,7s3.134,7,7,7
		c32.313,0,62.676-12.567,85.496-35.387c2.734-2.734,2.734-7.166,0-9.9C269.69,246.021,265.257,246.021,262.524,248.754z"/>
	<path d="M262.524,295.475c-20.175,20.176-47.022,31.286-75.597,31.286c-3.866,0-7,3.134-7,7s3.134,7,7,7
		c32.314,0,62.677-12.567,85.496-35.386c2.734-2.734,2.734-7.166,0-9.9C269.69,292.742,265.257,292.742,262.524,295.475z"/>
	<path d="M262.524,342.194c-20.176,20.176-47.023,31.287-75.597,31.287c-3.866,0-7,3.134-7,7s3.134,7,7,7
		c32.313,0,62.676-12.567,85.496-35.387c2.734-2.734,2.734-7.166,0-9.9C269.69,339.462,265.257,339.462,262.524,342.194z"/>
</g>
<g>
</g>
<g>
</g>
<g>
</g>
<g>
</g>
<g>
</g>
<g>
</g>
<g>
</g>
<g>
</g>
<g>
</g>
<g>
</g>
<g>
</g>
<g>
</g>
<g>
</g>
<g>
</g>
<g>
</g>
</svg>
