<?xml version="1.0" encoding="iso-8859-1"?>
<!-- Generator: Adobe Illustrator 18.0.0, SVG Export Plug-In . SVG Version: 6.00 Build 0)  -->
<!DOCTYPE svg PUBLIC "-//W3C//DTD SVG 1.1//EN" "http://www.w3.org/Graphics/SVG/1.1/DTD/svg11.dtd">
<svg version="1.1" id="Capa_1" xmlns="http://www.w3.org/2000/svg" xmlns:xlink="http://www.w3.org/1999/xlink" x="0px" y="0px"
	 viewBox="0 0 451.511 451.511" style="enable-background:new 0 0 451.511 451.511;" xml:space="preserve">
<path d="M359.133,73.098c-1.326-1.445-3.197-2.268-5.158-2.268h-3.816V37.889c0-3.48-2.557-6.432-6.002-6.928l-33.131-4.774V11.801
	c0-2.165-1.002-4.208-2.713-5.534c-1.712-1.326-3.938-1.784-6.037-1.244l-39.144,10.106c-3.091,0.798-5.25,3.586-5.25,6.778v45.996
	l-25.144-4.844V11.801c0-3.537-2.638-6.518-6.147-6.948l-39.133-4.8c-1.996-0.247-3.989,0.377-5.491,1.706
	c-1.502,1.329-2.361,3.237-2.361,5.242v33.776l-25.144,6.291V21.907c0-3.26-2.25-6.088-5.427-6.821l-39.144-9.03
	c-2.076-0.479-4.263,0.014-5.932,1.343c-1.669,1.328-2.642,3.345-2.642,5.478V70.83h-3.783c-1.961,0-3.832,0.823-5.158,2.268
	c-1.325,1.445-1.984,3.38-1.816,5.333l11.814,137.029h-3.238c-1.971,0-3.851,0.831-5.177,2.289
	c-1.327,1.458-1.978,3.407-1.792,5.369l13.11,139c0.339,3.596,3.357,6.343,6.969,6.343h3.325l6.609,76.651
	c0.175,2.032,1.227,3.886,2.881,5.078c1.654,1.193,3.746,1.603,5.729,1.127c62.125-14.928,127.803-14.928,189.928,0
	c0.541,0.13,1.09,0.194,1.636,0.194c1.455,0,2.89-0.454,4.093-1.321c1.654-1.192,2.706-3.046,2.881-5.078l6.609-76.651h3.328
	c3.611,0,6.63-2.747,6.969-6.343l13.11-139c0.186-1.962-0.465-3.911-1.792-5.369c-1.326-1.458-3.206-2.289-5.177-2.289h-3.241
	L360.95,78.431C361.118,76.478,360.458,74.543,359.133,73.098z M336.159,43.952V70.83h-7.023c-3.668,0-6.713,2.831-6.981,6.489
	l-0.93,12.688c-0.947,12.869-4.462,25.223-10.198,36.465V40.331L336.159,43.952z M297.026,20.837V32.25v114.63
	c-1.935,2.155-3.97,4.235-6.112,6.225c-5.815,5.402-12.214,9.994-19.031,13.748V27.329L297.026,20.837z M257.878,82.159v90.99
	c-8.051,2.866-16.495,4.646-25.14,5.272V77.316L257.878,82.159z M193.606,14.912l25.133,3.083v160.425
	c-8.643-0.63-17.085-2.413-25.133-5.282V14.912z M179.606,55.208v111.627c-6.804-3.752-13.192-8.339-18.997-13.734
	c-2.155-2.001-4.201-4.093-6.146-6.26V61.499L179.606,55.208z M115.319,21.676l25.144,5.8v98.935
	c-5.719-11.226-9.223-23.56-10.167-36.406l-0.939-12.69c-0.271-3.656-3.315-6.483-6.98-6.483h-7.057V21.676z M316.073,435.884
	c-59.268-13.017-121.368-13.017-180.636,0l-5.812-67.423h192.26L316.073,435.884z M332.895,354.461H118.619l-11.79-125h237.856
	L332.895,354.461z M116.428,215.461L105.165,84.83h10.709l0.459,6.203c2.036,27.719,14.377,53.405,34.746,72.325
	c20.361,18.922,46.881,29.342,74.676,29.342c27.798,0,54.322-10.419,74.687-29.339c20.365-18.919,32.704-44.605,34.745-72.329
	l0.454-6.202h10.704l-11.263,130.63H116.428z"/>
<g>
</g>
<g>
</g>
<g>
</g>
<g>
</g>
<g>
</g>
<g>
</g>
<g>
</g>
<g>
</g>
<g>
</g>
<g>
</g>
<g>
</g>
<g>
</g>
<g>
</g>
<g>
</g>
<g>
</g>
</svg>
