<?xml version="1.0" encoding="iso-8859-1"?>
<!-- Generator: Adobe Illustrator 18.0.0, SVG Export Plug-In . SVG Version: 6.00 Build 0)  -->
<!DOCTYPE svg PUBLIC "-//W3C//DTD SVG 1.1//EN" "http://www.w3.org/Graphics/SVG/1.1/DTD/svg11.dtd">
<svg version="1.1" id="Capa_1" xmlns="http://www.w3.org/2000/svg" xmlns:xlink="http://www.w3.org/1999/xlink" x="0px" y="0px"
	 viewBox="0 0 411.49 411.49" style="enable-background:new 0 0 411.49 411.49;" xml:space="preserve">
<path d="M395.299,317.112c4.162-4.714,6.441-10.699,6.441-17.03c0-13.418-10.318-24.465-23.435-25.641v-36.758
	c13.115-1.177,23.431-12.224,23.431-25.64c0-13.609-10.613-24.778-23.996-25.683v-37.833c0.34-0.007,0.681-0.009,1.018-0.026
	c9.993-0.506,19.167-5.48,25.169-13.647c6.192-8.425,8.248-19.054,5.64-29.162l-0.607-2.355c0,0,0,0,0,0
	C394.425,47.014,343.651,7.678,285.484,7.678H126.007c-58.167,0-108.941,39.336-123.474,95.659l-0.608,2.356
	c-2.608,10.109-0.553,20.738,5.64,29.163c6.002,8.166,15.175,13.14,25.166,13.646c0.338,0.017,0.679,0.019,1.019,0.026v37.833
	c-13.382,0.906-23.995,12.075-23.995,25.683c0,13.416,10.315,24.463,23.431,25.64v36.756c-5.994,0.532-11.568,3.119-15.896,7.434
	c-4.947,4.946-7.624,11.527-7.538,18.529c0.078,6.36,2.546,12.177,6.547,16.641C6.523,323.139,0,333.986,0,346.332
	c0,31.694,25.786,57.48,57.48,57.48h296.53c15.354,0,29.786-5.977,40.639-16.83c10.86-10.859,16.841-25.295,16.841-40.65
	C411.49,334.032,405.015,323.221,395.299,317.112z M387.74,300.082c0,3.135-1.224,6.088-3.433,8.303
	c-2.229,2.223-5.183,3.447-8.317,3.447H262.866l6.517-6.517c10.951-10.952,25.512-16.983,40.999-16.983h60.923
	c0.002,0,0.003,0,0.005,0v0h4.68C382.468,288.332,387.74,293.603,387.74,300.082z M200.6,295.416
	c-13.596-13.596-31.672-21.083-50.899-21.083H47.186v-10.38h317.12v10.38h-53.923c-19.227,0-37.303,7.488-50.899,21.083
	l-29.441,29.441L200.6,295.416z M364.305,249.952H47.186v-12.16h317.12V249.952z M47.75,148.547h315.99v1.361l-17.608,12.191
	c-9.953,6.89-23.327,6.891-33.28,0c-14.72-10.191-34.5-10.19-49.218,0c-9.953,6.891-23.326,6.891-33.279,0
	c-14.719-10.19-34.499-10.189-49.218,0c-9.953,6.89-23.327,6.891-33.28,0c-14.719-10.19-34.499-10.191-49.217,0
	c-9.954,6.891-23.327,6.89-33.28,0L47.75,149.908V148.547z M47.75,166.935l9.64,6.674c14.72,10.191,34.5,10.19,49.217,0
	c9.954-6.891,23.327-6.89,33.28,0c14.721,10.191,34.5,10.19,49.218,0c9.952-6.891,23.324-6.891,33.28,0
	c7.36,5.096,15.982,7.644,24.608,7.643c8.624,0,17.25-2.548,24.608-7.643c9.952-6.89,23.326-6.891,33.28,0
	c14.72,10.191,34.5,10.19,49.218,0l9.64-6.674v19.358H47.75V166.935z M18.846,126.564c-3.691-5.022-4.917-11.355-3.365-17.374
	l0.608-2.355c12.937-50.139,58.137-85.157,109.918-85.157h159.477c51.781,0,96.981,35.018,109.918,85.157l0.607,2.355
	c1.554,6.02,0.327,12.352-3.364,17.374c-3.501,4.763-8.821,7.663-14.599,7.956c-0.351,0.018-344.251,0.018-344.604,0
	C27.667,134.227,22.347,131.328,18.846,126.564z M23.755,212.043c0-6.479,5.271-11.749,11.749-11.749h340.483
	c6.479,0,11.749,5.271,11.749,11.75s-5.271,11.749-11.749,11.749H35.504C29.025,223.792,23.755,218.521,23.755,212.043z
	 M27.182,291.779c2.229-2.223,5.184-3.447,8.318-3.447h4.686h0.004h109.511c15.487,0,30.048,6.031,41,16.983l6.517,6.517H35.982
	c-6.667,0-12.153-5.204-12.231-11.602C23.712,297.032,24.933,294.028,27.182,291.779z M384.75,377.083
	c-8.208,8.208-19.125,12.729-30.739,12.729H57.48c-23.975,0-43.48-19.505-43.48-43.48c0-11.304,9.196-20.5,20.5-20.5h176.717
	l13.874,13.874c1.367,1.367,3.159,2.05,4.95,2.05s3.583-0.684,4.949-2.05l13.875-13.874H376.99c11.304,0,20.5,9.196,20.5,20.5
	C397.49,357.947,392.965,368.868,384.75,377.083z"/>
<g>
</g>
<g>
</g>
<g>
</g>
<g>
</g>
<g>
</g>
<g>
</g>
<g>
</g>
<g>
</g>
<g>
</g>
<g>
</g>
<g>
</g>
<g>
</g>
<g>
</g>
<g>
</g>
<g>
</g>
</svg>
