<?xml version="1.0" encoding="iso-8859-1"?>
<!-- Generator: Adobe Illustrator 18.0.0, SVG Export Plug-In . SVG Version: 6.00 Build 0)  -->
<!DOCTYPE svg PUBLIC "-//W3C//DTD SVG 1.1//EN" "http://www.w3.org/Graphics/SVG/1.1/DTD/svg11.dtd">
<svg version="1.1" id="Capa_1" xmlns="http://www.w3.org/2000/svg" xmlns:xlink="http://www.w3.org/1999/xlink" x="0px" y="0px"
	 viewBox="0 0 468.454 468.454" style="enable-background:new 0 0 468.454 468.454;" xml:space="preserve">
<g>
	<path d="M468.454,236.26c0-28.162-20.075-52.279-47.723-57.342c-3.44-0.637-7-0.96-10.579-0.96h-30.077
		c-27.662-19.364-60.919-29.923-94.876-29.923c-15.111,0-30.06,2.06-44.48,6.079c-14.42-4.019-29.369-6.079-44.479-6.079
		c-34.248,0-67.002,10.342-94.887,29.923H58.302c-15.583,0-30.226,6.068-41.228,17.085C6.064,206.054,0,220.695,0,236.271
		c0,26.905,18.328,50.104,44.072,56.539c8.42,16.889,25.545,27.608,44.609,27.608h323.566c10.756,0,20.791-4.811,27.533-13.198
		c5.955-7.409,8.605-16.728,7.514-26.022c1.417-1.175,2.786-2.41,4.087-3.71C462.391,266.479,468.454,251.837,468.454,236.26z
		 M418.197,192.687c21.009,3.847,36.257,22.172,36.257,43.573c0,10.846-3.878,21.089-10.961,29.164
		c-8.505-27.996-24.47-53.487-46.053-73.466h12.712C412.879,191.958,415.581,192.202,418.197,192.687z M196.24,162.035
		c6.534,0,13.032,0.438,19.464,1.263c-8.858,4.106-17.337,9.008-25.379,14.659h-61.764
		C149.43,167.492,172.44,162.035,196.24,162.035z M14,236.271c0-11.836,4.607-22.962,12.977-31.332
		c8.361-8.371,19.486-12.981,31.326-12.981h114.656c-24.897,22.975-42.193,52.999-49.396,86.297
		c-0.169,0.782-0.374,1.553-0.594,2.319H58.302c-2.722,0-5.425-0.244-8.045-0.729C29.249,275.999,14,257.673,14,236.271z
		 M111.082,298.499c-6.317,5.107-14.272,7.92-22.401,7.92c-10.371,0-19.931-4.431-26.603-11.845h53.118
		C113.929,295.983,112.561,297.304,111.082,298.499z M428.868,298.449c-4.07,5.065-10.129,7.97-16.621,7.97H123.234
		c4.718-4.573,8.514-10.062,11.092-16.073c1.256-2.913,2.238-5.983,2.92-9.128c7.883-36.444,28.979-68.614,59.408-90.589
		c13.99-10.122,29.476-17.706,46.029-22.542c13.746-4.016,28.051-6.052,42.517-6.052c34.694,0,68.596,12.033,95.456,33.883
		c26.488,21.546,45.094,51.662,52.389,84.802C434.42,286.974,432.898,293.436,428.868,298.449z"/>
	<path d="M250.146,244.069c-7.892,0-15.311,3.073-20.891,8.653c-2.734,2.734-2.734,7.166,0,9.9c2.733,2.732,7.166,2.733,9.9,0
		c2.936-2.937,6.84-4.554,10.991-4.554c4.152,0,8.057,1.617,10.992,4.554c1.367,1.366,3.159,2.05,4.95,2.05s3.583-0.684,4.95-2.05
		c2.733-2.734,2.733-7.166,0-9.9C265.458,247.143,258.039,244.069,250.146,244.069z"/>
	<path d="M328.146,210.069c-7.892,0-15.311,3.073-20.892,8.653c-2.733,2.734-2.733,7.166,0,9.9c2.734,2.732,7.166,2.732,9.9,0
		c2.936-2.937,6.84-4.554,10.991-4.554c4.152,0,8.057,1.617,10.992,4.554c1.367,1.366,3.159,2.05,4.95,2.05s3.583-0.684,4.95-2.05
		c2.733-2.734,2.733-7.166,0-9.9C343.458,213.143,336.039,210.069,328.146,210.069z"/>
	<path d="M25.216,220.266c-3.866,0-7,3.134-7,7v18c0,3.866,3.134,7,7,7s7-3.134,7-7v-18
		C32.216,223.399,29.083,220.266,25.216,220.266z"/>
</g>
<g>
</g>
<g>
</g>
<g>
</g>
<g>
</g>
<g>
</g>
<g>
</g>
<g>
</g>
<g>
</g>
<g>
</g>
<g>
</g>
<g>
</g>
<g>
</g>
<g>
</g>
<g>
</g>
<g>
</g>
</svg>
