<?xml version="1.0" encoding="iso-8859-1"?>
<!-- Generator: Adobe Illustrator 18.0.0, SVG Export Plug-In . SVG Version: 6.00 Build 0)  -->
<!DOCTYPE svg PUBLIC "-//W3C//DTD SVG 1.1//EN" "http://www.w3.org/Graphics/SVG/1.1/DTD/svg11.dtd">
<svg version="1.1" id="Capa_1" xmlns="http://www.w3.org/2000/svg" xmlns:xlink="http://www.w3.org/1999/xlink" x="0px" y="0px"
	 viewBox="0 0 432.718 432.718" style="enable-background:new 0 0 432.718 432.718;" xml:space="preserve">
<path d="M317.859,141.668h-1.199c2.788-6.565,4.2-13.396,4.2-20.42c0-27.937-23.425-53.382-59.825-65.165
	c-0.966-0.582-2.058-0.922-3.187-0.988c-3.566-1.055-7.254-1.98-10.983-2.757c-21.421-4.455-36.848-22.454-37.514-43.771
	c-0.016-0.519-0.025-1.04-0.025-1.564c0-2.034-0.885-3.969-2.425-5.298c-1.54-1.33-3.583-1.93-5.595-1.627
	c-11.859,1.747-22.617,7.161-31.111,15.655c-12.418,12.418-18.161,30.127-15.65,47.346c-26.838,13.486-42.684,34.927-42.684,58.17
	c0,7.024,1.412,13.855,4.2,20.42h-1.2c-3.866,0-7,3.134-7,7s3.134,7,7,7h5.996l19.892,270.563c0.269,3.656,3.314,6.486,6.981,6.486
	h137.264c3.667,0,6.712-2.83,6.981-6.486l19.892-270.563h5.996c3.866,0,7-3.134,7-7S321.725,141.668,317.859,141.668z
	 M125.859,121.248c0-17.269,12.22-33.613,33.038-44.66c2.948,5.383,8.276,12.154,17.399,15.663c0.826,0.318,1.676,0.469,2.511,0.469
	c2.812,0,5.465-1.707,6.535-4.489c1.388-3.608-0.412-7.658-4.021-9.046c-9.238-3.554-11.921-13.292-12.059-13.815
	c-0.002-0.007-0.004-0.013-0.006-0.02c-0.001-0.005-0.002-0.01-0.003-0.015c-3.635-14.169,0.519-29.382,10.839-39.702
	c4.53-4.53,9.919-7.888,15.853-9.915c3.598,24.804,22.556,45.021,48.066,50.327c3.72,0.775,7.391,1.714,10.911,2.791
	c0.058,0.019,0.117,0.035,0.175,0.052c0.071,0.024,0.142,0.047,0.214,0.069c31.313,9.696,51.546,30.222,51.546,52.292
	c0,7.04-1.975,13.894-5.878,20.42H131.737C127.834,135.141,125.859,128.287,125.859,121.248z M296.2,177.776H136.518l-1.625-22.105
	h162.933L296.2,177.776z M147.149,322.388h138.419l-0.906,12.33H148.056L147.149,322.388z M146.12,308.388l-0.906-12.33h142.291
	l-0.906,12.33H146.12z M144.184,282.057l-0.907-12.34h146.163l-0.907,12.34H144.184z M142.248,255.718l-4.701-63.941h157.624
	l-4.701,63.941H142.248z M154.231,418.718l-5.146-70h134.548l-5.146,70H154.231z"/>
<g>
</g>
<g>
</g>
<g>
</g>
<g>
</g>
<g>
</g>
<g>
</g>
<g>
</g>
<g>
</g>
<g>
</g>
<g>
</g>
<g>
</g>
<g>
</g>
<g>
</g>
<g>
</g>
<g>
</g>
</svg>
