<?xml version="1.0" encoding="iso-8859-1"?>
<!-- Generator: Adobe Illustrator 18.0.0, SVG Export Plug-In . SVG Version: 6.00 Build 0)  -->
<!DOCTYPE svg PUBLIC "-//W3C//DTD SVG 1.1//EN" "http://www.w3.org/Graphics/SVG/1.1/DTD/svg11.dtd">
<svg version="1.1" id="Capa_1" xmlns="http://www.w3.org/2000/svg" xmlns:xlink="http://www.w3.org/1999/xlink" x="0px" y="0px"
	 viewBox="0 0 460.969 460.969" style="enable-background:new 0 0 460.969 460.969;" xml:space="preserve">
<path d="M330.306,237.893h-5.847V31.444c0-2.411-1.24-4.651-3.283-5.932c-2.042-1.28-4.6-1.419-6.77-0.368
	c-7.372,3.572-14.554,7.537-21.54,11.827c-0.573-2.643-1.188-5.293-1.863-7.937c-3.04-11.92-10.501-21.453-20.471-26.156
	c-7.774-3.667-15.996-3.833-23.135-0.476c-2.459,1.149-4.719,2.591-6.766,4.269c-1.014-0.355-2.1-0.704-3.268-0.968
	c-0.262-0.176-0.676-0.493-0.971-0.718c-1.61-1.232-3.816-2.921-6.927-3.287c-2.123-0.25-4.067-0.081-5.782,0.067
	c-0.895,0.078-1.736,0.152-2.334,0.133c-4.521-0.135-7.396,3.045-9.126,4.946c-0.094,0.104-0.202,0.222-0.313,0.343
	c-0.231,0.003-0.461,0.005-0.69,0.008c-1.562,0.017-3.332,0.036-5.257,0.317c-2.385,0.348-4.286,1.253-5.674,1.914
	c-0.583,0.277-1.243,0.592-1.557,0.666c-1.975,0.466-3.587,1.109-5.01,1.677c-0.099,0.04-0.196,0.079-0.293,0.117
	c-0.161-0.097-0.317-0.192-0.455-0.276c-2.335-1.424-6.227-3.798-10.555-2.064c-0.313,0.059-1.059,0.096-1.563,0.12
	c-1.817,0.089-4.305,0.211-6.718,1.455c-2.989,1.541-4.555,4.199-5.591,5.958c-0.127,0.216-0.292,0.495-0.435,0.726
	c-0.439,0.184-1.015,0.379-1.543,0.558c-1.546,0.524-3.471,1.177-5.255,2.468c-2.954,2.136-3.944,5.306-4.459,7.635
	c-0.824,0.011-1.822,0.122-2.889,0.44c-2.451-1.291-4.918-2.553-7.41-3.76c-2.168-1.05-4.727-0.911-6.769,0.369
	s-3.282,3.521-3.282,5.931v206.449h-5.842c-3.866,0-7,3.134-7,7v209.076c0,2.138,0.977,4.159,2.653,5.486
	c1.676,1.328,3.866,1.816,5.948,1.328c64.258-15.091,132.186-15.091,196.442,0c0.53,0.125,1.066,0.186,1.601,0.186
	c1.563,0,3.098-0.524,4.347-1.514c1.676-1.328,2.653-3.348,2.653-5.486V244.893C337.306,241.027,334.172,237.893,330.306,237.893z
	 M310.459,237.893H287.02c-2.254-49.14-18.656-95.7-47.716-135.367c19.493-24.293,43.851-44.691,71.154-59.605V237.893z
	 M228.055,46.998c0.49-0.018,0.961-0.062,1.417-0.119c1.183,4.889,2.148,9.821,2.853,14.787c-1.824,0.302-3.362,0.912-4.585,1.472
	c-1.973-2.07-5.534-5.275-10.41-3.684c-2.024,0.66-3.995,1.789-5.9,2.88c-0.93,0.533-1.984,1.137-2.513,1.356
	c-0.801,0.334-1.742,1.046-2.703,1.97c-4.217-3.854-8.576-7.548-13.043-11.106c0.507-0.123,1.026-0.271,1.552-0.456
	c3.134-1.102,4.731-3.596,5.705-5.69c2.079,0.75,4.639,1.413,7.391,0.708c1.172-0.3,2.261-0.65,3.314-0.989
	c1.211-0.39,2.355-0.757,3.366-0.957c2.563-0.506,4.491-1.951,5.973-3.236C222.259,45.431,224.731,47.131,228.055,46.998z
	 M218.389,74.484c0.163-0.093,0.339-0.194,0.522-0.299c1.69,1.727,4.232,3.873,7.651,3.872c0.635,0,1.301-0.074,1.997-0.239
	c1.772-0.416,3.211-1.1,4.367-1.649c0.235-0.112,0.489-0.231,0.733-0.342c0.19,3.793,0.241,7.593,0.154,11.398
	c-1.128,1.311-2.232,2.641-3.332,3.974c-4.457-5.403-9.135-10.622-14.029-15.631C217.101,75.22,217.75,74.85,218.389,74.484z
	 M253.339,15.078c3.307-1.556,7.291-1.392,11.22,0.461c6.089,2.872,10.903,9.21,12.878,16.955c1.086,4.257,2.034,8.527,2.83,12.744
	c-11.662,8.163-22.636,17.315-32.76,27.332c-0.683-10.5-2.325-20.919-4.936-31.124C239.85,30.554,244.473,19.221,253.339,15.078z
	 M170.452,31.829c0.21-0.073,0.424-0.146,0.614-0.21c1.404-0.476,3.151-1.069,4.893-2.14c2.401-1.477,3.701-3.684,4.65-5.295
	c0.088-0.149,0.192-0.327,0.298-0.501c0.221-0.013,2.932-0.146,4.288-0.417c0.172,0.104,0.342,0.207,0.488,0.296
	c2.41,1.47,6.051,3.692,10.298,2.3c1.084-0.354,2.064-0.746,2.929-1.09c1.112-0.444,2.072-0.827,3.038-1.055
	c1.766-0.417,3.202-1.1,4.356-1.649c0.617-0.293,1.384-0.659,1.681-0.702c0.995-0.145,2.104-0.157,3.387-0.171
	c0.9-0.01,1.921-0.021,3.008-0.083c3.997-0.228,6.525-3.007,8.199-4.847c0.11-0.122,0.239-0.263,0.37-0.405
	c0.681-0.037,1.333-0.094,1.945-0.147c0.802-0.069,1.625-0.141,2.283-0.142c0.228,0.166,0.499,0.373,0.707,0.532
	c0.951,0.728,2.134,1.626,3.597,2.323c-1.974,4.121-3.203,8.677-3.58,13.428c-1.915-1.61-4.76-3.584-8.528-3.104
	c-3.409,0.431-5.75,2.531-7.459,4.065c-0.267,0.24-0.631,0.566-0.9,0.788c-1.513,0.346-2.912,0.796-4.168,1.2
	c-0.534,0.171-1.049,0.337-1.54,0.485c-0.365-0.13-0.816-0.306-1.158-0.44c-2.317-0.908-5.49-2.152-8.943-1.097
	c-4.243,1.297-5.977,5.115-6.917,7.423c-0.162,0.014-0.325,0.028-0.487,0.042c-1.512,0.128-3.395,0.287-5.301,1.042
	c-1.645,0.652-2.341,0.858-3.015,1.059c-0.362,0.107-0.703,0.212-1.054,0.329c-3.204-2.191-6.468-4.29-9.769-6.329
	C169.685,35.596,170.42,31.987,170.452,31.829z M150.505,42.918c28.825,15.739,54.392,37.611,74.42,63.756
	c29.215,38.139,45.754,83.371,48.08,131.219h-122.5V42.918z M323.306,445.225c-30.459-6.507-61.639-9.76-92.822-9.76
	c-31.182,0-62.362,3.253-92.821,9.76V251.893h185.643V445.225z"/>
<g>
</g>
<g>
</g>
<g>
</g>
<g>
</g>
<g>
</g>
<g>
</g>
<g>
</g>
<g>
</g>
<g>
</g>
<g>
</g>
<g>
</g>
<g>
</g>
<g>
</g>
<g>
</g>
<g>
</g>
</svg>
