<?xml version="1.0" encoding="iso-8859-1"?>
<!-- Generator: Adobe Illustrator 18.0.0, SVG Export Plug-In . SVG Version: 6.00 Build 0)  -->
<!DOCTYPE svg PUBLIC "-//W3C//DTD SVG 1.1//EN" "http://www.w3.org/Graphics/SVG/1.1/DTD/svg11.dtd">
<svg version="1.1" id="Capa_1" xmlns="http://www.w3.org/2000/svg" xmlns:xlink="http://www.w3.org/1999/xlink" x="0px" y="0px"
	 viewBox="0 0 470.161 470.161" style="enable-background:new 0 0 470.161 470.161;" xml:space="preserve">
<g>
	<path d="M206.034,139.968v-32.021c0-3.173-2.134-5.949-5.201-6.765c-8.014-2.132-15.122-6.593-20.552-12.898
		c-5.417-6.299-8.762-13.995-9.674-22.258l-1.403-12.673c0.7-0.388,1.339-0.891,1.878-1.507c1.329-1.52,1.938-3.541,1.668-5.542
		L168.348,13.6C167.304,5.847,160.618,0,152.794,0s-14.509,5.847-15.553,13.6l-2.307,17.144c-0.33-0.006-0.66-0.018-0.988-0.018
		c-30.951,0-56.131,25.18-56.131,56.131c0,17.435,8.064,33.74,21.74,44.349v8.763c-11.554,5.704-19.524,17.606-19.524,31.34v281.547
		c0,9.542,7.763,17.304,17.305,17.304h110.921c9.542,0,17.305-7.763,17.305-17.304V171.309
		C225.562,157.574,217.59,145.671,206.034,139.968z M173.024,100.947h-40.328c8.905-8.678,14.759-20.331,16.2-33.38l1.476-13.329
		h4.844l1.476,13.327c1.224,11.079,5.71,21.399,12.978,29.851C170.735,98.653,171.865,99.817,173.024,100.947z M151.117,15.467
		c0.112-0.836,0.834-1.467,1.678-1.467c0.844,0,1.566,0.631,1.678,1.467l3.334,24.771h-10.024L151.117,15.467z M91.815,86.857
		c0-22.93,18.417-41.628,41.234-42.108l-0.209,1.555c-0.27,2.001,0.339,4.021,1.668,5.542c0.538,0.616,1.177,1.119,1.877,1.507
		l-1.403,12.675c-1.874,16.959-13.74,30.759-30.23,35.155c-3.064,0.817-5.197,3.592-5.197,6.764v3.239
		C94.587,104.168,91.815,95.707,91.815,86.857z M113.555,114.947h78.479v21.466c-0.466-0.019-78.012-0.019-78.479,0V114.947z
		 M211.562,452.856c0,1.822-1.482,3.304-3.305,3.304H97.335c-1.822,0-3.305-1.482-3.305-3.304V171.309
		c0-11.542,9.39-20.932,20.932-20.932h75.667c11.542,0,20.932,9.39,20.932,20.932V452.856z"/>
	<path d="M372.818,139.968v-32.021c0-3.173-2.134-5.949-5.201-6.765c-8.014-2.132-15.122-6.593-20.552-12.898
		c-5.417-6.299-8.762-13.995-9.674-22.258l-1.403-12.673c0.7-0.388,1.339-0.891,1.878-1.507c1.329-1.52,1.938-3.541,1.668-5.542
		L335.132,13.6C334.088,5.847,327.402,0,319.579,0s-14.51,5.847-15.553,13.6l-2.307,17.144c-0.33-0.006-0.66-0.018-0.988-0.018
		c-30.951,0-56.131,25.18-56.131,56.131c0,17.435,8.064,33.74,21.74,44.349v8.763c-11.554,5.704-19.524,17.606-19.524,31.34v281.547
		c0,9.542,7.763,17.304,17.305,17.304h110.922c9.542,0,17.304-7.763,17.304-17.304V171.309
		C392.346,157.574,384.375,145.671,372.818,139.968z M339.808,100.947h-40.328c8.905-8.678,14.759-20.331,16.2-33.38l1.476-13.329
		h4.844l1.476,13.327c1.224,11.079,5.71,21.399,12.978,29.851C337.519,98.653,338.65,99.817,339.808,100.947z M317.901,15.467
		c0.112-0.836,0.834-1.467,1.678-1.467c0.844,0,1.565,0.631,1.678,1.467l3.334,24.771h-10.024L317.901,15.467z M258.599,86.857
		c0-22.93,18.417-41.628,41.234-42.108l-0.209,1.555c-0.27,2.001,0.339,4.021,1.668,5.542c0.538,0.616,1.177,1.119,1.877,1.507
		l-1.403,12.675c-1.874,16.959-13.74,30.759-30.23,35.155c-3.064,0.817-5.197,3.592-5.197,6.764v3.239
		C261.371,104.168,258.599,95.707,258.599,86.857z M280.339,114.947h78.479v21.466c-0.466-0.019-78.012-0.019-78.479,0V114.947z
		 M378.346,452.856c0,1.822-1.482,3.304-3.304,3.304H264.12c-1.822,0-3.305-1.482-3.305-3.304V171.309
		c0-11.542,9.39-20.932,20.932-20.932h75.667c11.542,0,20.932,9.39,20.932,20.932V452.856z"/>
</g>
<g>
</g>
<g>
</g>
<g>
</g>
<g>
</g>
<g>
</g>
<g>
</g>
<g>
</g>
<g>
</g>
<g>
</g>
<g>
</g>
<g>
</g>
<g>
</g>
<g>
</g>
<g>
</g>
<g>
</g>
</svg>
