<?xml version="1.0" encoding="iso-8859-1"?>
<!-- Generator: Adobe Illustrator 18.0.0, SVG Export Plug-In . SVG Version: 6.00 Build 0)  -->
<!DOCTYPE svg PUBLIC "-//W3C//DTD SVG 1.1//EN" "http://www.w3.org/Graphics/SVG/1.1/DTD/svg11.dtd">
<svg version="1.1" id="Capa_1" xmlns="http://www.w3.org/2000/svg" xmlns:xlink="http://www.w3.org/1999/xlink" x="0px" y="0px"
	 viewBox="0 0 416.405 416.405" style="enable-background:new 0 0 416.405 416.405;" xml:space="preserve">
<path d="M416.405,165.321c0-85.032-69.178-154.21-154.21-154.21H154.21C69.178,11.111,0,80.29,0,165.322
	c0,43.023,28.875,79.425,68.262,90.856l18.403,130.048c0.406,2.864,2.531,5.184,5.349,5.838
	c38.006,8.82,77.097,13.229,116.189,13.229s78.184-4.41,116.189-13.229c2.818-0.654,4.943-2.974,5.349-5.838l18.403-130.048
	C387.53,244.747,416.405,208.344,416.405,165.321z M134.984,259.91l8.439,127.198c-5.028-0.652-10.045-1.378-15.049-2.182
	L115.934,259.91H134.984z M149.016,259.91h19.082l4.316,130.107c-4.957-0.352-9.908-0.78-14.851-1.279L149.016,259.91z
	 M182.105,259.91h19.097v131.335c-4.92-0.068-9.839-0.214-14.755-0.426L182.105,259.91z M215.202,259.91H234.3l-4.342,130.909
	c-4.916,0.212-9.835,0.358-14.755,0.426V259.91z M248.307,259.91h19.082l-8.547,128.828c-4.943,0.499-9.894,0.927-14.851,1.279
	L248.307,259.91z M281.42,259.91h19.05L288.03,384.927c-5.004,0.805-10.021,1.53-15.048,2.182L281.42,259.91z M82.929,259.91h11.659
	h7.276l12.191,122.502c-4.749-0.907-9.485-1.879-14.204-2.926L82.929,259.91z M333.475,259.91l-16.921,119.576
	c-4.719,1.046-9.455,2.018-14.205,2.926L314.54,259.91h7.276H333.475z M321.816,245.91H94.588C50.152,245.91,14,209.758,14,165.321
	c0-77.312,62.898-140.21,140.21-140.21h107.985c77.312,0,140.21,62.898,140.21,140.21
	C402.405,209.758,366.253,245.91,321.816,245.91z"/>
<g>
</g>
<g>
</g>
<g>
</g>
<g>
</g>
<g>
</g>
<g>
</g>
<g>
</g>
<g>
</g>
<g>
</g>
<g>
</g>
<g>
</g>
<g>
</g>
<g>
</g>
<g>
</g>
<g>
</g>
</svg>
