<?xml version="1.0" encoding="iso-8859-1"?>
<!-- Generator: Adobe Illustrator 18.0.0, SVG Export Plug-In . SVG Version: 6.00 Build 0)  -->
<!DOCTYPE svg PUBLIC "-//W3C//DTD SVG 1.1//EN" "http://www.w3.org/Graphics/SVG/1.1/DTD/svg11.dtd">
<svg version="1.1" id="Capa_1" xmlns="http://www.w3.org/2000/svg" xmlns:xlink="http://www.w3.org/1999/xlink" x="0px" y="0px"
	 viewBox="0 0 391.981 391.981" style="enable-background:new 0 0 391.981 391.981;" xml:space="preserve">
<g>
	<path d="M391.98,148.543c0-4.253-1.637-9.981-12.722-15.777c5.844-3.049,12.723-8.156,12.723-15.849
		c0-11.174-14.516-16.894-19.285-18.773c-9.975-3.931-24.078-7.432-41.918-10.404c-36.064-6.011-83.933-9.321-134.787-9.321
		c-50.855,0-98.724,3.311-134.788,9.321c-17.84,2.973-31.943,6.474-41.918,10.404C14.516,100.023,0,105.743,0,116.917
		c0,7.674,6.847,12.776,12.681,15.827C5.517,136.521,0,141.594,0,148.543c0,7.678,6.852,12.781,12.687,15.833
		C5.52,168.152,0,173.224,0,180.173c0,4.254,1.64,9.987,12.754,15.794C5.555,199.747,0,204.83,0,211.803
		c0,4.254,1.64,9.987,12.754,15.794C5.555,231.377,0,236.46,0,243.433c0,4.255,1.64,9.988,12.754,15.795
		C5.555,263.008,0,268.091,0,275.063c0,11.175,14.515,16.896,19.285,18.774c9.974,3.931,24.077,7.432,41.917,10.405
		c36.062,6.01,83.931,9.32,134.788,9.32s98.727-3.311,134.788-9.32c17.84-2.974,31.943-6.475,41.917-10.405
		c4.771-1.879,19.285-7.6,19.285-18.774c0-4.257-1.64-9.991-12.754-15.793c7.199-3.784,12.754-8.868,12.754-15.838
		c0-4.257-1.64-9.992-12.754-15.793c7.199-3.784,12.754-8.868,12.754-15.836c0-4.257-1.64-9.992-12.754-15.793
		c7.199-3.784,12.754-8.868,12.754-15.836c0-6.949-5.52-12.021-12.687-15.797C385.129,161.324,391.98,156.221,391.98,148.543z
		 M277.393,214.943c-1.658,0-3.008-1.35-3.008-3.008v-27.695c12.686-0.957,24.756-2.149,36.016-3.565v86.267c0,4.411-3.589,8-8,8
		s-8-3.589-8-8v-34.992C294.4,222.573,286.771,214.943,277.393,214.943z M195.99,267.933c-66.484,0-128.387-5.904-161.551-15.409
		c-14.784-4.237-19.053-7.831-20.164-9.091c1.064-1.204,5.022-4.544,18.295-8.531c35.18,9.654,95.974,15.401,163.42,15.401
		c29.33,0,58.325-1.135,84.41-3.286v17.575C254.421,266.779,225.41,267.933,195.99,267.933z M61.202,177.723
		c36.061,6.011,83.93,9.32,134.788,9.32c22.286,0,43.998-0.636,64.395-1.855v17.586c-20.604,1.257-42.226,1.9-64.395,1.9
		c-66.484,0-128.387-5.904-161.551-15.408c-14.771-4.235-19.045-7.826-20.161-9.088c1.071-1.209,5.039-4.549,18.294-8.53
		C40.637,173.857,50.207,175.891,61.202,177.723z M195.99,218.673c22.399,0,44.257-0.648,65.101-1.917
		c2.085,7.036,8.599,12.188,16.302,12.188c1.658,0,3.008,1.35,3.008,3.008v1.018c-26,2.182-55.024,3.334-84.41,3.334
		c-66.484,0-128.387-5.904-161.551-15.408c-14.784-4.239-19.053-7.832-20.164-9.092c1.064-1.204,5.022-4.544,18.295-8.531
		C67.75,212.926,128.544,218.673,195.99,218.673z M324.4,241.996c13.588-2.065,25.334-4.444,35.019-7.092
		c13.265,3.986,17.222,7.325,18.286,8.529c-1.111,1.26-5.38,4.854-20.163,9.091c-8.956,2.567-20.083,4.891-33.142,6.928V241.996z
		 M324.4,227.829v-17.47c13.575-2.057,25.322-4.433,35.019-7.085c13.266,3.986,17.222,7.325,18.286,8.528
		c-1.111,1.26-5.379,4.853-20.157,9.09C348.551,223.463,337.422,225.789,324.4,227.829z M324.4,196.192v-17.455
		c2.163-0.329,4.292-0.667,6.378-1.015c10.995-1.832,20.565-3.866,28.63-6.076c13.255,3.981,17.223,7.321,18.294,8.53
		c-1.115,1.262-5.388,4.852-20.154,9.086C348.538,191.836,337.409,194.16,324.4,196.192z M323.611,164.695
		c-34.72,5.383-80.044,8.348-127.621,8.348s-92.901-2.965-127.621-8.348C25.226,158.007,16,150.49,14.277,148.541
		c1.065-1.206,5.026-4.543,18.284-8.526c8.067,2.212,17.641,4.246,28.642,6.079c36.064,6.011,83.934,9.321,134.788,9.321
		s98.723-3.311,134.787-9.321c11-1.833,20.575-3.868,28.642-6.079c13.258,3.983,17.218,7.321,18.283,8.526
		C375.98,150.49,366.755,158.007,323.611,164.695z M68.373,100.766c34.723-5.383,80.045-8.348,127.618-8.348
		c47.572,0,92.895,2.965,127.617,8.348c43.123,6.687,52.363,14.198,54.093,16.151c-1.729,1.953-10.971,9.465-54.094,16.15
		c-34.723,5.383-80.044,8.348-127.616,8.348s-92.895-2.965-127.617-8.348c-43.123-6.686-52.364-14.197-54.094-16.15
		C16.01,114.964,25.25,107.452,68.373,100.766z M323.611,291.216c-34.721,5.383-80.044,8.348-127.621,8.348
		s-92.9-2.965-127.621-8.348c-43.146-6.689-52.37-14.206-54.092-16.154c1.066-1.206,5.026-4.543,18.293-8.53
		c35.18,9.654,95.973,15.401,163.419,15.401c30.569,0,60.736-1.229,87.618-3.562c3.866,6.334,10.844,10.572,18.792,10.572
		c9.745,0,18.024-6.37,20.907-15.164c14.09-2.101,26.214-4.531,36.116-7.245c13.257,3.985,17.214,7.321,18.28,8.527
		C375.981,277.01,366.757,284.526,323.611,291.216z"/>
	<path d="M113.388,121.047c1.605-1.605,3.739-2.489,6.01-2.489s4.404,0.884,6.01,2.489c1.367,1.367,3.158,2.051,4.95,2.051
		c1.791,0,3.583-0.684,4.949-2.05c2.734-2.733,2.734-7.166,0.001-9.899c-4.25-4.25-9.9-6.591-15.91-6.591s-11.66,2.341-15.91,6.591
		c-2.733,2.733-2.733,7.166,0.001,9.899C106.223,123.78,110.653,123.781,113.388,121.047z"/>
	<path d="M191.573,134.105c3.313-3.314,8.709-3.313,12.021,0c1.367,1.366,3.159,2.05,4.95,2.05s3.583-0.684,4.95-2.05
		c2.733-2.734,2.733-7.166,0-9.9c-8.772-8.771-23.047-8.772-31.821,0c-2.733,2.734-2.733,7.166,0,9.9
		C184.407,136.838,188.839,136.838,191.573,134.105z"/>
	<path d="M266.573,124.103c3.316-3.315,8.71-3.313,12.022,0c1.367,1.366,3.158,2.05,4.949,2.05s3.583-0.684,4.95-2.051
		c2.733-2.733,2.733-7.166-0.001-9.899c-8.771-8.772-23.048-8.771-31.819,0c-2.734,2.733-2.734,7.166-0.001,9.899
		C259.408,126.835,263.841,126.836,266.573,124.103z"/>
</g>
<g>
</g>
<g>
</g>
<g>
</g>
<g>
</g>
<g>
</g>
<g>
</g>
<g>
</g>
<g>
</g>
<g>
</g>
<g>
</g>
<g>
</g>
<g>
</g>
<g>
</g>
<g>
</g>
<g>
</g>
</svg>
