<?xml version="1.0" encoding="iso-8859-1"?>
<!-- Generator: Adobe Illustrator 18.0.0, SVG Export Plug-In . SVG Version: 6.00 Build 0)  -->
<!DOCTYPE svg PUBLIC "-//W3C//DTD SVG 1.1//EN" "http://www.w3.org/Graphics/SVG/1.1/DTD/svg11.dtd">
<svg version="1.1" id="Capa_1" xmlns="http://www.w3.org/2000/svg" xmlns:xlink="http://www.w3.org/1999/xlink" x="0px" y="0px"
	 viewBox="0 0 464.603 464.603" style="enable-background:new 0 0 464.603 464.603;" xml:space="preserve">
<path d="M450.983,181.956l-0.01,0.003c-0.411-1.333-1.206-2.532-2.323-3.421c-1.67-1.328-3.854-1.823-5.932-1.343
	c-27.218,6.281-53.565,11.191-79.421,14.732L18.692,79.835c-1.766-0.575-3.687-0.424-5.342,0.419
	c-1.654,0.842-2.907,2.308-3.48,4.073C-6.494,134.654-2.409,188.404,21.375,235.677c23.511,46.732,63.571,81.763,112.915,98.826
	c27.61,27.705,63.032,43.705,103.792,46.875c22.056,2.479,42.614,3.734,61.549,3.734c24.819,0,46.882-2.129,65.978-6.384
	c32.775-7.302,57.791-21.056,74.35-40.878C468.583,303.585,472.292,251.135,450.983,181.956z M33.881,229.385
	c-21.063-41.865-25.511-89.192-12.74-134.03l308.705,100.415c-80.359,7.41-157.481,1.219-243.248-18.574
	c-2.078-0.478-4.262,0.015-5.932,1.343c-1.669,1.328-2.642,3.345-2.642,5.478c0,48.217,12.954,92.671,36.725,126.994
	C79.958,293.215,51.769,264.941,33.881,229.385z M135.004,314.55c-26.116-31.23-41.176-74.189-42.828-121.739
	c120.365,26.678,224.549,26.679,344.909,0.012c-4.613,97.358-85.266,175.146-183.745,175.146c-4.746,0-17.443-0.921-19.182-1.13
	l-0.012,0.104C194.266,362.643,160.263,344.757,135.004,314.55z M429.215,328.873c-20.882,24.996-57.56,38.926-109.427,41.716
	c27.341-9.716,52.401-25.474,73.526-46.599c27.614-27.614,46.052-61.954,53.812-99.322
	C455.215,269.943,449.24,304.902,429.215,328.873z"/>
<g>
</g>
<g>
</g>
<g>
</g>
<g>
</g>
<g>
</g>
<g>
</g>
<g>
</g>
<g>
</g>
<g>
</g>
<g>
</g>
<g>
</g>
<g>
</g>
<g>
</g>
<g>
</g>
<g>
</g>
</svg>
