<?xml version="1.0" encoding="iso-8859-1"?>
<!-- Generator: Adobe Illustrator 18.0.0, SVG Export Plug-In . SVG Version: 6.00 Build 0)  -->
<!DOCTYPE svg PUBLIC "-//W3C//DTD SVG 1.1//EN" "http://www.w3.org/Graphics/SVG/1.1/DTD/svg11.dtd">
<svg version="1.1" id="Capa_1" xmlns="http://www.w3.org/2000/svg" xmlns:xlink="http://www.w3.org/1999/xlink" x="0px" y="0px"
	 viewBox="0 0 440.245 440.245" style="enable-background:new 0 0 440.245 440.245;" xml:space="preserve">
<g>
	<path d="M88.442,138.295h58.116c17.464,0,31.673-14.208,31.673-31.673c0-17.464-14.208-31.672-31.673-31.672H88.442
		c-17.464,0-31.673,14.208-31.673,31.672C56.769,124.087,70.978,138.295,88.442,138.295z M88.442,88.95h58.116
		c9.745,0,17.673,7.928,17.673,17.672c0,9.745-7.928,17.673-17.673,17.673H88.442c-7.258,0-13.503-4.401-16.22-10.673h69.772
		c3.866,0,7-3.134,7-7s-3.134-7-7-7H72.222C74.939,93.352,81.184,88.95,88.442,88.95z"/>
	<path d="M440.245,222.685c0-41.39-33.673-75.063-75.063-75.063H262.548c-9.724,0-19.012,1.879-27.548,5.26c0,0,0-43.683,0-46.26
		c0-38.598-31.402-70-70-70H70c-38.598,0-70,31.402-70,70c0,2.576,0,98,0,98c0,38.598,31.402,70,70,70h95
		c7.662,0,15.279-1.271,22.485-3.708v57.646c0,41.39,33.673,75.063,75.063,75.063h102.634c41.39,0,75.063-33.673,75.063-75.063
		C440.245,328.56,440.245,225.491,440.245,222.685z M365.182,161.622c33.67,0,61.063,27.393,61.063,61.063
		s-27.393,61.063-61.063,61.063H262.548c-33.67,0-61.063-27.393-61.063-61.063s27.393-61.063,61.063-61.063H365.182z M70,50.622h95
		c30.878,0,56,25.121,56,56s-25.122,56-56,56H70c-30.878,0-56-25.121-56-56S39.122,50.622,70,50.622z M14,204.622v-56.049
		c12.03,16.018,30.761,26.722,51.994,27.926v83.963C36.98,258.4,14,234.153,14,204.622z M165,260.622H79.994v-84H165
		c22.874,0,43.218-11.03,56-28.049v11.635c-20.186,13.469-33.515,36.442-33.515,62.477c0,13.816,0,33.226,0,33.226
		C180.421,259.029,172.879,260.622,165,260.622z M201.485,328.56v-62.302c13.628,19.043,35.912,31.489,61.063,31.489h78.446v91.875
		h-78.446C228.878,389.622,201.485,362.23,201.485,328.56z M426.245,328.56c0,33.67-27.393,61.063-61.063,61.063h-10.188v-91.875
		h10.188c25.15,0,47.434-12.446,61.063-31.489V328.56z"/>
	<path d="M282.472,256.341h62.787c18.558,0,33.655-15.098,33.655-33.656c0-18.558-15.098-33.655-33.655-33.655h-62.787
		c-18.558,0-33.655,15.098-33.655,33.655C248.816,241.243,263.914,256.341,282.472,256.341z M273.478,240.142l36.814-36.814
		l-0.299-0.299h32.8l-39.312,39.312h-21.009C279.23,242.341,276.176,241.539,273.478,240.142z M345.258,242.341h-21.978
		l34.653-34.653c4.262,3.608,6.979,8.988,6.979,14.997C364.914,233.524,356.096,242.341,345.258,242.341z M282.472,203.03h8.319
		l-26.661,26.661c-0.836-2.18-1.313-4.536-1.313-7.006C262.816,211.847,271.634,203.03,282.472,203.03z"/>
</g>
<g>
</g>
<g>
</g>
<g>
</g>
<g>
</g>
<g>
</g>
<g>
</g>
<g>
</g>
<g>
</g>
<g>
</g>
<g>
</g>
<g>
</g>
<g>
</g>
<g>
</g>
<g>
</g>
<g>
</g>
</svg>
