<?xml version="1.0" encoding="iso-8859-1"?>
<!-- Generator: Adobe Illustrator 18.0.0, SVG Export Plug-In . SVG Version: 6.00 Build 0)  -->
<!DOCTYPE svg PUBLIC "-//W3C//DTD SVG 1.1//EN" "http://www.w3.org/Graphics/SVG/1.1/DTD/svg11.dtd">
<svg version="1.1" id="Capa_1" xmlns="http://www.w3.org/2000/svg" xmlns:xlink="http://www.w3.org/1999/xlink" x="0px" y="0px"
	 viewBox="0 0 456.724 456.724" style="enable-background:new 0 0 456.724 456.724;" xml:space="preserve">
<path d="M449.724,277.143c3.866,0,7-3.134,7-7V227.86c0-2.584-1.404-4.836-3.488-6.049l0.003-0.005L231.877,93.301
	c-2.174-1.262-4.855-1.262-7.029,0L3.486,221.807l0.003,0.005C1.405,223.024,0,225.276,0,227.86v42.282c0,3.866,3.134,7,7,7h11.833
	v22.976l-15.352,8.914c-0.023,0.013-0.043,0.033-0.065,0.048C1.373,310.304,0,312.532,0,315.086v42.283c0,3.866,3.134,7,7,7h442.724
	c3.866,0,7-3.134,7-7v-42.283c0-2.557-1.376-4.788-3.423-6.009c-0.021-0.014-0.039-0.032-0.06-0.044l-15.349-8.91v-22.98H449.724z
	 M228.362,107.449L423.723,220.86H33.002L228.362,107.449z M14,234.86h428.724v28.282H14V234.86z M423.892,308.086H32.833v-8.472
	h391.059V308.086z M442.724,350.369H14v-28.283h428.724V350.369z M423.892,285.615H32.833v-8.472h391.059V285.615z"/>
<g>
</g>
<g>
</g>
<g>
</g>
<g>
</g>
<g>
</g>
<g>
</g>
<g>
</g>
<g>
</g>
<g>
</g>
<g>
</g>
<g>
</g>
<g>
</g>
<g>
</g>
<g>
</g>
<g>
</g>
</svg>
