<?xml version="1.0" encoding="iso-8859-1"?>
<!-- Generator: Adobe Illustrator 18.0.0, SVG Export Plug-In . SVG Version: 6.00 Build 0)  -->
<!DOCTYPE svg PUBLIC "-//W3C//DTD SVG 1.1//EN" "http://www.w3.org/Graphics/SVG/1.1/DTD/svg11.dtd">
<svg version="1.1" id="Capa_1" xmlns="http://www.w3.org/2000/svg" xmlns:xlink="http://www.w3.org/1999/xlink" x="0px" y="0px"
	 viewBox="0 0 468.335 468.335" style="enable-background:new 0 0 468.335 468.335;" xml:space="preserve">
<path d="M301.752,334.89c5.244-24.434,8.015-51.991,8.015-79.691c0-48.427-8.473-94.983-23.247-127.733
	c-9.511-21.066-14.333-43.259-14.333-65.963V38.13h0.516c3.866,0,7-3.134,7-7V19.15c0-10.559-8.591-19.15-19.15-19.15h-52.773
	c-10.559,0-19.15,8.591-19.15,19.15v11.98c0,3.866,3.134,7,7,7h0.509v23.373c0,22.719-4.819,44.912-14.323,65.963
	c-14.774,32.725-23.248,79.282-23.248,127.733c0,27.699,2.772,55.256,8.016,79.692c5.477,25.512,4.47,51.133-2.912,74.092
	c-2.701,8.391-4.07,17.191-4.07,26.158c0,5.315,0.493,10.641,1.465,15.834c1.892,10.06,10.705,17.361,20.954,17.361h104.293
	c10.259,0,19.068-7.306,20.942-17.353c0.979-5.174,1.477-10.504,1.477-15.842c0-8.967-1.369-17.768-4.069-26.156
	C297.282,386.024,296.275,360.402,301.752,334.89z M172.567,255.199c0-22.738,1.92-44.975,5.51-65.391h112.177
	c3.592,20.42,5.513,42.657,5.513,65.391c0,2.033-0.021,4.063-0.051,6.092H172.619C172.588,259.262,172.567,257.231,172.567,255.199z
	 M258.187,38.13v10.13h-48.049V38.13H258.187z M210.128,62.26h48.069c0.064,14.666,1.98,29.125,5.709,43.242h-59.481
	C208.15,91.391,210.065,76.931,210.128,62.26z M202.629,19.15c0-2.84,2.31-5.15,5.15-5.15h52.773c2.84,0,5.15,2.31,5.15,5.15v4.98
	h-0.512h-62.049h-0.512V19.15z M194.575,133.227c2.044-4.527,3.88-9.105,5.524-13.725h68.137c1.644,4.619,3.48,9.196,5.524,13.723
	c5.553,12.309,10.162,26.745,13.706,42.583H180.866C184.41,159.966,189.02,145.531,194.575,133.227z M293.498,448.396
	c-0.642,3.441-3.663,5.938-7.183,5.938H182.021c-3.521,0-6.547-2.502-7.194-5.943c-0.813-4.34-1.225-8.799-1.225-13.251
	c0-7.508,1.143-14.866,3.397-21.871c8.132-25.292,9.263-53.411,3.272-81.317c-3.772-17.576-6.212-36.865-7.202-56.662h122.196
	c-0.989,19.798-3.43,39.086-7.202,56.661c-5.991,27.906-4.859,56.025,3.273,81.319c2.254,7.002,3.396,14.359,3.396,21.869
	C294.733,439.606,294.319,444.06,293.498,448.396z"/>
<g>
</g>
<g>
</g>
<g>
</g>
<g>
</g>
<g>
</g>
<g>
</g>
<g>
</g>
<g>
</g>
<g>
</g>
<g>
</g>
<g>
</g>
<g>
</g>
<g>
</g>
<g>
</g>
<g>
</g>
</svg>
