<?xml version="1.0" encoding="iso-8859-1"?>
<!-- Generator: Adobe Illustrator 18.0.0, SVG Export Plug-In . SVG Version: 6.00 Build 0)  -->
<!DOCTYPE svg PUBLIC "-//W3C//DTD SVG 1.1//EN" "http://www.w3.org/Graphics/SVG/1.1/DTD/svg11.dtd">
<svg version="1.1" id="Capa_1" xmlns="http://www.w3.org/2000/svg" xmlns:xlink="http://www.w3.org/1999/xlink" x="0px" y="0px"
	 viewBox="0 0 452.02 452.02" style="enable-background:new 0 0 452.02 452.02;" xml:space="preserve">
<path d="M366.064,140.934l-9.758-42.417c-0.731-3.178-3.561-5.431-6.822-5.431h-10.266l-4.732-18.649
	c-0.788-3.104-3.582-5.278-6.785-5.278h-91.455V7c0-3.866-3.134-7-7-7s-7,3.134-7,7v62.159h-97.927
	c-3.203,0-5.997,2.174-6.785,5.279l-4.731,18.648h-10.267c-3.262,0-6.091,2.252-6.822,5.431l-9.757,42.417
	c-0.478,2.078,0.018,4.261,1.346,5.929c1.328,1.668,3.344,2.64,5.477,2.64h13.658l20.291,272.501c0.271,3.654,3.316,6.48,6.98,6.48
	h8.365v16.536c0,3.866,3.134,7,7,7h150.724c3.866,0,7-3.134,7-7v-16.536h11.515c3.664,0,6.709-2.826,6.98-6.48l20.291-272.501
	h13.658c2.133,0,4.148-0.972,5.477-2.64C366.046,145.194,366.541,143.012,366.064,140.934z M129.765,83.159h192.49l2.519,9.927
	H127.246L129.765,83.159z M292.797,438.02H156.073v-9.536h136.724V438.02z M311.814,414.484H140.206l-19.73-264.981h211.068
	L311.814,414.484z M101.572,135.503l6.536-28.417h235.804l6.537,28.417H101.572z"/>
<g>
</g>
<g>
</g>
<g>
</g>
<g>
</g>
<g>
</g>
<g>
</g>
<g>
</g>
<g>
</g>
<g>
</g>
<g>
</g>
<g>
</g>
<g>
</g>
<g>
</g>
<g>
</g>
<g>
</g>
</svg>
