<?xml version="1.0" encoding="iso-8859-1"?>
<!-- Generator: Adobe Illustrator 18.0.0, SVG Export Plug-In . SVG Version: 6.00 Build 0)  -->
<!DOCTYPE svg PUBLIC "-//W3C//DTD SVG 1.1//EN" "http://www.w3.org/Graphics/SVG/1.1/DTD/svg11.dtd">
<svg version="1.1" id="Capa_1" xmlns="http://www.w3.org/2000/svg" xmlns:xlink="http://www.w3.org/1999/xlink" x="0px" y="0px"
	 viewBox="0 0 429.48 429.48" style="enable-background:new 0 0 429.48 429.48;" xml:space="preserve">
<g>
	<path d="M429.479,143.867c-0.001-21.234-22.728-39.677-65.726-53.337C323.85,77.854,270.929,70.872,214.74,70.872
		S105.63,77.854,65.727,90.531c-42.998,13.66-65.725,32.103-65.726,53.337H0c0,118.408,96.332,214.74,214.74,214.74
		C333.148,358.608,429.48,262.276,429.479,143.867L429.479,143.867z M69.965,103.873C108.535,91.62,159.95,84.872,214.74,84.872
		c118.299,0,200.74,31.092,200.74,58.996c0,10.918-12.891,22.475-35.376,32.325C339.119,126.712,279.16,98.438,214.74,98.438
		c-64.411,0-124.361,28.266-165.344,77.733C26.746,166.299,14,154.838,14,143.868C14,129.957,34.922,115.006,69.965,103.873z
		 M366.316,181.591c-2.205,0.773-4.469,1.532-6.801,2.273c-38.57,12.254-89.985,19.002-144.775,19.002
		c-63.055,0-115.919-8.834-151.545-21.31c38.208-44.039,92.896-69.117,151.545-69.117
		C273.404,112.438,328.107,137.529,366.316,181.591z M214.74,344.608c-100.851,0-184.557-74.76-198.641-171.77
		c11.058,9.19,27.701,17.403,49.628,24.369c39.903,12.677,92.824,19.658,149.013,19.658s109.11-6.981,149.014-19.658
		c21.928-6.967,38.57-15.179,49.628-24.369C399.297,269.847,315.591,344.608,214.74,344.608z"/>
	<path d="M172.075,136.799c-3.491,1.661-4.974,5.838-3.313,9.329c1.662,3.492,5.838,4.977,9.329,3.313
		c8.606-4.096,22.307-6.541,36.649-6.541s28.043,2.445,36.65,6.541c0.971,0.462,1.995,0.681,3.003,0.681
		c2.617,0,5.126-1.475,6.326-3.994c1.661-3.491,0.178-7.668-3.313-9.329c-10.549-5.02-26.1-7.898-42.666-7.898
		C198.175,128.901,182.624,131.78,172.075,136.799z"/>
	<path d="M122.328,150.931c-3.401-1.841-7.648-0.574-9.488,2.825c-1.839,3.4-0.575,7.647,2.826,9.487
		c24.27,13.133,60.381,20.664,99.074,20.664s74.805-7.531,99.075-20.664c3.4-1.84,4.665-6.087,2.826-9.487
		c-1.84-3.4-6.088-4.666-9.488-2.825c-22.289,12.06-55.972,18.977-92.413,18.977S144.616,162.99,122.328,150.931z"/>
</g>
<g>
</g>
<g>
</g>
<g>
</g>
<g>
</g>
<g>
</g>
<g>
</g>
<g>
</g>
<g>
</g>
<g>
</g>
<g>
</g>
<g>
</g>
<g>
</g>
<g>
</g>
<g>
</g>
<g>
</g>
</svg>
